<?xml version="1.0" encoding="utf-8"?>
<!-- Svg Vector Icons : http://www.onlinewebfonts.com/icon -->
<!DOCTYPE svg PUBLIC "-//W3C//DTD SVG 1.1//EN" "http://www.w3.org/Graphics/SVG/1.1/DTD/svg11.dtd">
<svg version="1.1" xmlns="http://www.w3.org/2000/svg" xmlns:xlink="http://www.w3.org/1999/xlink" x="0px" y="0px" viewBox="0 0 256 256" enable-background="new 0 0 256 256" xml:space="preserve">
<metadata> Svg Vector Icons : http://www.onlinewebfonts.com/icon </metadata>
<g><g><path fill="#000000" d="M128,10C62.8,10,10,62.8,10,128c0,65.2,52.8,118,118,118c65.2,0,118-52.8,118-118C246,62.8,193.2,10,128,10z M182.8,92.3L154.2,121c0.9,16.1,3.4,57.3,3.5,58.2c0,1.3,0.2,4.1-2.5,7.3c-2.7,3.3-9,10-9,10c-1.5,1.5-3.3,2.3-5,2.3c-0.2,0-0.4,0-0.6,0c-1.2-0.1-3.2-0.7-4.3-3.5c-0.7-1.7-10.6-28.6-15.1-41.1l-17.8,17.1c-0.1,4.9,0,17.2,0,20.2c0,0.9,0.6,3.2-3.9,8.5c-1.6,1.6-3.3,2.4-4.9,2.4c0,0-0.1,0-0.1,0c-1.7,0-3-0.9-3.9-2.3c-0.6-1-11.6-18.6-14-22.5c-10-6.1-22.3-13.9-23.2-14.7c-1.6-1.3-1.9-2.9-1.9-4c0-1.1,0.4-2.7,2-4.3l0.4-0.4c5.4-4.5,7.4-4,8.4-4.1c0.2,0,0.6,0,1,0c3.3,0,11.3,0.2,16.6,0.2c1.1,0,2,0,2.8,0l17.1-17.7C87.1,127.9,60,117.7,58.3,117c-2.8-1.1-3.4-3.2-3.5-4.3c-0.2-1.9,0.6-3.9,2.2-5.5c0,0,6.7-6.3,9.9-9c2.7-2.3,5.2-2.6,6.6-2.6c0.2,0,0.5,0,0.6,0c1,0,42.4,2.8,58.5,3.8l28.7-28.7C167,65,173.3,63,178.4,63c4.1,0,7.5,1.3,9.2,3C191.4,69.8,193,82.1,182.8,92.3z M178.4,71.8c-2.2,0-6.5,0.6-11,5.1l-28.7,28.7l-2.8,2.8l-3.9-0.2c-7.9-0.5-21.7-1.4-33.9-2.2c-11.5-0.7-23.5-1.5-24.4-1.6h-0.3c-0.2,0-0.6,0.2-1,0.6c-1.5,1.3-4.2,3.7-6.4,5.7c8.6,3.3,27,10.1,36.7,13.7l12.8,4.7l-9.6,9.7l-17.1,17.7l-2.5,2.5l-3.5,0.1c-0.8,0-1.8,0-2.9,0c-3,0-6.8,0-10.2-0.1c-2.6,0-4.9-0.1-6.3-0.1H63c4.5,2.9,11.5,7.3,17.9,11.2l1.8,1.1l1.1,1.8c1.5,2.5,6.5,10.4,10.1,16.1c0.2,0.4,0.5,0.7,0.7,1.1c0-1.6,0-4.1,0-6.8c0-4.4,0-9.4,0-12.2l0.1-3.5l2.5-2.5l17.8-17.1l9.7-9.7l4.7,12.9c3.6,10,10.2,27.9,13.4,36.3c2-2.2,4.4-4.8,5.7-6.4c0.6-0.7,0.6-0.8,0.5-1.4c0-0.9-0.7-11.5-1.3-22.7c-0.8-12.6-1.6-27.2-2.1-35.4l-0.2-3.9l2.8-2.8l28.7-28.8c6.2-6.2,5.3-12.2,4.7-13.8C180.9,72.1,179.8,71.8,178.4,71.8z"/></g></g>
</svg>